<svg xmlns="http://www.w3.org/2000/svg"  viewBox="0 0 308 223"> <defs> <style>.cls-2,.cls-3{fill:#4285f4;opacity:.13;isolation:isolate}.cls-3{fill:#ffb2ab;opacity:.31}</style> </defs> <g id="Group_88824" data-name="Group 88824" opacity="0.27" transform="translate(-2248.486 -958.365)"> <path id="Path_184274" d="M2431.466 1163.892c-40.78-18.814-80.9-51.349-142.241-24.4a146.434 146.434 0 0 0-40.739 26.538 30.067 30.067 0 0 0 17.813 14.3c67.965-45.587 114.309-9.147 165.167-16.438z" class="cls-2" data-name="Path 184274" transform="translate(0 -.178)"/> <path id="Path_184275" d="M2479.062 1142.061c-16.739 13.394-32.369 19.482-47.6 21.663 24.722 11.4 49.687 17.755 79.769 2.775 18.29-9.109 33.276-23.837 45.523-41.112V958.365c-2.906 34.453-16.497 134.727-77.692 183.696z" class="cls-3" data-name="Path 184275" transform="translate(-.272)"/> <path id="Path_184276" d="M2511.006 1166.669c-30.054 14.993-55 8.628-79.694-2.777-50.811 7.291-97.111-29.149-165.012 16.434a29.961 29.961 0 0 0 8.451 1.217h251.764a29.986 29.986 0 0 0 29.972-30v-26.02c-12.236 17.289-27.208 32.029-45.481 41.146z" class="cls-2" data-name="Path 184276" transform="translate(0 -.178)"/> <path id="Path_184277" d="M2511.006 1166.669c-30.054 14.993-55 8.628-79.694-2.777-50.811 7.291-97.111-29.149-165.012 16.434a29.961 29.961 0 0 0 8.451 1.217h251.764a29.986 29.986 0 0 0 29.972-30v-26.02c-12.236 17.289-27.208 32.029-45.481 41.146z" class="cls-3" data-name="Path 184277" transform="translate(0 -.178)"/> </g></svg>